<?xml version="1.0" standalone="no"?><!DOCTYPE svg PUBLIC "-//W3C//DTD SVG 1.1//EN" "http://www.w3.org/Graphics/SVG/1.1/DTD/svg11.dtd"><svg class="icon" width="200px" height="200.00px" viewBox="0 0 1024 1024" version="1.1" xmlns="http://www.w3.org/2000/svg"><path fill="#000000" d="M703.352 282.816c-52.356-51.616-121.646-79.456-195.286-78.432-70.768 1.002-137.57 29.246-188.106 79.526-50.536 50.286-79.11 116.948-80.454 187.708-1.448 76.142 27.768 147.33 82.262 200.45 28.662 27.94 49.156 62.482 59.486 100.074v159.798h261.504v-159.762c10.238-37.804 30.394-72.032 58.494-99.148 53.72-51.84 83.304-121.492 83.304-196.126 0-73.53-28.838-142.458-81.204-194.088zM582.758 871.94h-141.504v-73.78h141.504v73.78z m76.828-242.084c-30.99 29.906-54.428 66.554-68.674 107.058V627.9l58.648-59.394-42.694-42.158-75.954 76.922v134.892H493.1v-134.892l-75.954-76.922-42.694 42.158 58.648 59.394v109.174c-14.344-40.402-38.048-77.362-69.45-107.97-42.498-41.426-65.284-96.952-64.156-156.344 2.154-113.296 96.098-206.776 209.42-208.38 57.42-0.826 111.48 20.91 152.31 61.166 40.838 40.264 63.328 94.02 63.328 151.362 0.004 58.2-23.07 112.518-64.966 152.948zM457.846 964h108.3v60h-108.3zM482.006 0h60v134.38h-60zM689.878 177.25l72.094-113.402 50.634 32.19-72.094 113.402zM841.784 324.594l121.68-57.016 25.456 54.328-121.68 57.016zM211.382 96.036l50.634-32.19 72.094 113.402-50.634 32.19zM35.054 321.944l25.458-54.328 121.68 57.016-25.46 54.328z" /></svg>