<?xml version="1.0" standalone="no"?><!DOCTYPE svg PUBLIC "-//W3C//DTD SVG 1.1//EN" "http://www.w3.org/Graphics/SVG/1.1/DTD/svg11.dtd"><svg class="icon" width="200px" height="200.00px" viewBox="0 0 1024 1024" version="1.1" xmlns="http://www.w3.org/2000/svg"><path fill="#000000" d="M696.64586 124.526972l33.616089 59.907282a157.95814 157.95814 0 0 1 44.720098-40.406077c37.367896-22.575377 79.661668-27.085488 117.879709-16.110554 38.473705 10.19305 72.908912 36.736183 94.570849 75.441971a166.970916 166.970916 0 0 1 15.457742 122.574742c-10.052807 40.087119-34.966392 76.249919-72.633391 98.564668l-2.423843 1.699049a160.70963 160.70963 0 0 1-53.950064 18.664711l31.964203 57.32458c1.926167 1.954712 3.00219 4.796802 4.076971 7.038205a202.088721 202.088721 0 0 1 16.552381 143.470929 196.588222 196.588222 0 0 1-83.212418 115.821986c-2.426326 1.695325-4.352493 3.363346-5.957219 4.219697L507.22864 971.30964l-2.701847 1.116979a179.01815 179.01815 0 0 1-139.278536 18.35568 187.841039 187.841039 0 0 1-113.277757-90.639084l-49.07259-88.138294c-10.530625-18.638648-4.05215-43.482733 13.856739-54.221862a36.072201 36.072201 0 0 1 34.690871-1.695325c11.630229 5.088458 21.934976 8.472903 31.414401 8.472903 9.753705 0 21.684277-3.962792 37.391477-13.582459 15.18222-9.592363 28.213637-29.926337 33.891611-53.366752 5.402453-20.072104 4.85141-42.072858-4.601952-59.878737v-0.260629c-10.580269-18.379261-30.639962-29.953641-50.949114-35.037134-21.159297-5.082252-43.369794-3.388168-57.201712 5.088458l-1.875283 1.695325c-14.657241 8.471662-23.580658 16.944564-28.463095 25.989608-4.628014 8.472903-7.028277 19.760591-8.654102 33.315747a39.263037 39.263037 0 0 1-43.1253 34.436448 41.308348 41.308348 0 0 1-27.913293-19.733288L40.317961 518.839011l-1.351544-2.555398A200.323895 200.323895 0 0 1 21.884092 371.395363c12.480373-48.566227 42.544471-92.073782 87.01511-118.89616l1.876524-1.146765 97.293794-58.445281c18.409047-10.766432 41.444868-4.536174 52.025137 14.675857a38.636288 38.636288 0 0 1 2.97861 32.221108 89.786458 89.786458 0 0 0-3.52717 35.00983 79.008856 79.008856 0 0 0 8.404643 30.239091c1.350303 1.955954 2.451147 4.197357 3.525928 5.917504a77.100064 77.100064 0 0 0 46.071642 35.270459 74.514879 74.514879 0 0 0 57.45117-6.464823c2.176867-1.116979 3.52717-2.267466 5.427275-2.840849a85.698316 85.698316 0 0 0 34.666049-49.139609 87.020074 87.020074 0 0 0-8.12788-62.408073l-1.351544-1.98574a84.968557 84.968557 0 0 0-21.383934-24.295524l-1.650646-0.860073c-8.129122-6.205436-18.409047-10.425133-28.989316-12.696323-20.584673-3.961551-34.139828-24.868907-29.537877-46.870902a36.777139 36.777139 0 0 1 20.881293-27.965419l96.720412-57.897962 0.549802-0.573382a179.502174 179.502174 0 0 1 140.91553-18.929063 187.462507 187.462507 0 0 1 113.277757 90.666389l0.248218 0.547319z m5.978317 169.495288l-71.558609-129.375901v-0.286691l-0.275521-0.548561v-0.286691a112.380451 112.380451 0 0 0-67.731097-53.679506 107.856688 107.856688 0 0 0-82.913316 11.313752h-0.549802l-0.52498 0.286691-38.488598 23.15c11.930572 10.740369 21.961039 24.008833 30.6139 38.425303l1.902586 2.530577a170.614748 170.614748 0 0 1 15.431679 123.122062 160.678603 160.678603 0 0 1-71.532546 97.470029l-1.350303 0.547319c-37.117197 22.339571-79.136688 27.137614-117.604188 16.110554-37.94252-10.166987-72.058767-35.867422-93.493585-74.008516l-1.076023-1.407392a166.926237 166.926237 0 0 1-17.632127-49.686929l-36.842916 22.288686-1.625824 1.116979c-26.559267 15.823863-44.445817 41.813471-51.498916 70.645169-7.053099 27.658871-4.877473 58.159831 9.504246 85.270141l1.076023 2.268708 52.818191 95.468155c10.052807-12.149003 23.580658-23.436692 42.295013-34.463752l1.325481-1.694084c30.638721-17.517947 72.908912-22.862068 112.201735-13.555155 39.838901 9.592363 77.510864 33.055118 99.995642 72.026499v0.574623l0.551043 0.54732c20.609495 37.563988 22.484778 81.072784 12.480373 120.306034-11.130071 42.673544-37.69182 81.646167-69.657264 100.858198-18.988635 11.293894-35.495096 18.616309-51.498915 21.741366l10.580269 19.213272a109.395637 109.395637 0 0 0 67.481637 53.366752 107.99569 107.99569 0 0 0 82.637795-10.140924l1.350303-0.860073 331.978432-199.715762h0.275521c25.987126-16.058428 44.170296-42.36079 51.474094-70.593044 7.053099-28.258316 4.601952-59.306596-10.030467-85.869586l-0.800501-1.669262-70.732046-128.230377c-7.578079-10.740369-8.935828-25.442289-2.978609-38.425303 8.953203-19.785413 31.688681-28.258316 50.673593-19.185968a79.157787 79.157787 0 0 0 37.391477 7.585526 74.769302 74.769302 0 0 0 34.666049-9.854233l1.376366-1.116979c18.988635-11.313751 31.439222-29.661986 37.117197-50.025745 4.902295-20.593361 2.730392-43.189837-8.129122-62.408073a79.057258 79.057258 0 0 0-47.948165-38.688413 76.432359 76.432359 0 0 0-60.428539 8.18497c-11.379529 6.80364-20.059693 16.397245-27.112792 27.137614-6.502056 11.261626-11.105249 24.295524-11.904509 37.563988a38.549411 38.549411 0 0 1-19.259192 30.761589c-17.884067 11.313751-40.918647 4.796802-52.023896-14.103715z" /></svg>